<?xml version="1.0" encoding="UTF-8"?>
<svg width="18px" height="18px" viewBox="0 0 18 18" version="1.1" xmlns="http://www.w3.org/2000/svg" xmlns:xlink="http://www.w3.org/1999/xlink">
    <!-- Generator: sketchtool 46.2 (44496) - http://www.bohemiancoding.com/sketch -->
    <title>16D267B8-3B02-4882-8F46-FB9EF64D8A12</title>
    <desc>Created with sketchtool.</desc>
    <defs></defs>
    <g id="V2" stroke="none" stroke-width="1" fill="none" fill-rule="evenodd">
        <g id="Desktop" transform="translate(-1248.000000, -21.000000)" fill="#FFFFFF">
            <g id="Menu">
                <g id="Facebook-coonect" transform="translate(1248.000000, 21.000000)">
                    <path d="M17.0039062,0 L0.99609375,0 C0.4453125,0 0,0.4453125 0,0.99609375 L0,17.0039062 C0,17.5546875 0.4453125,18 0.99609375,18 L9.609375,18 L9.609375,11.0273438 L7.265625,11.0273438 L7.265625,8.30859375 L9.609375,8.30859375 L9.609375,6.3046875 C9.609375,3.984375 11.0390625,2.71875 13.1132812,2.71875 C14.0976562,2.71875 14.953125,2.7890625 15.1992188,2.82421875 L15.1992188,5.25 L13.7695312,5.26171875 C12.6328125,5.26171875 12.421875,5.7890625 12.421875,6.57421875 L12.421875,8.30859375 L15.1054688,8.30859375 L14.7539062,11.0273438 L12.421875,11.0273438 L12.421875,18 L17.0039062,18 C17.5546875,18 18,17.5546875 18,17.0039062 L18,0.99609375 C18,0.4453125 17.5546875,0 17.0039062,0 Z" id="ic_facebook_connect"></path>
                </g>
            </g>
        </g>
    </g>
</svg>