<?xml version="1.0" encoding="UTF-8"?>
<svg width="124px" height="18px" viewBox="0 0 124 18" version="1.1" xmlns="http://www.w3.org/2000/svg" xmlns:xlink="http://www.w3.org/1999/xlink">
    <!-- Generator: sketchtool 46.2 (44496) - http://www.bohemiancoding.com/sketch -->
    <title>349FBBE4-2E78-4BBD-A814-37FF21745217</title>
    <desc>Created with sketchtool.</desc>
    <defs></defs>
    <g id="V2" stroke="none" stroke-width="1" fill="none" fill-rule="evenodd">
        <g id="Desktop" transform="translate(-15.000000, -21.000000)" fill="#FFFFFF">
            <g id="Menu">
                <g id="logo" transform="translate(15.000000, 21.000000)">
                    <path d="M31.8865055,13.3001083 L31.8865055,14.4507042 L28.9539782,14.4507042 C28.7932917,14.4507042 28.6727769,14.411701 28.5522621,14.3336945 C28.4317473,14.255688 28.3714899,14.1581798 28.3313183,14.0021668 L28.1304602,13.0855905 C27.7086583,13.5536295 27.2466849,13.9046587 26.7043682,14.1971831 C26.1620515,14.4897075 25.5193058,14.6262189 24.7962168,14.6262189 C24.2338144,14.6262189 23.7316693,14.5287107 23.2696958,14.2946912 C22.8077223,14.0606717 22.4060062,13.7291441 22.0645476,13.3001083 C21.7230889,12.8710726 21.4619735,12.3250271 21.2812012,11.7009751 C21.100429,11.0574215 21,10.3358613 21,9.51679307 C21,8.77573131 21.100429,8.09317443 21.3012871,7.4496208 C21.5021451,6.80606717 21.8235179,6.26002167 22.2051482,5.79198267 C22.5867785,5.32394366 23.048752,4.97291441 23.5910686,4.69989166 C24.1333853,4.42686891 24.7359594,4.29035753 25.4188768,4.29035753 C26.0013651,4.29035753 26.5035101,4.38786566 26.9052262,4.56338028 C27.3069423,4.73889491 27.6684867,4.95341278 27.9898596,5.26543879 L27.9898596,1.93066089 C27.7287441,1.89165764 27.5479719,1.85265439 27.4073713,1.83315276 C27.2667707,1.81365114 27.1663417,1.77464789 27.1060842,1.77464789 C27.0458268,1.77464789 27.0056552,1.75514626 26.9855694,1.75514626 C26.6441108,1.67713976 26.4834243,1.48212351 26.4834243,1.15059588 L26.4834243,0 L30.4804992,0 L30.4804992,12.539545 C30.7014431,12.5785482 30.8822153,12.5980498 31.0027301,12.6175515 C31.1232449,12.6370531 31.2236739,12.6760563 31.2638456,12.6760563 C31.3040172,12.6760563 31.3441888,12.695558 31.3843604,12.695558 C31.725819,12.7735645 31.8865055,12.9685807 31.8865055,13.3001083 Z M28.0099454,11.5254605 L28.0099454,7.04008667 C27.7287441,6.70855905 27.4073713,6.47453954 27.0859984,6.33802817 C26.7445398,6.20151679 26.3829953,6.12351029 26.0013651,6.12351029 C25.6197348,6.12351029 25.2983619,6.20151679 24.9970749,6.33802817 C24.6957878,6.47453954 24.4346724,6.68905742 24.2137285,6.96208017 C24.0128705,7.23510293 23.8521841,7.58613218 23.7316693,8.01516793 C23.6111544,8.44420368 23.5709828,8.93174431 23.5709828,9.51679307 C23.5709828,10.1018418 23.6111544,10.6088841 23.7115835,11.0184182 C23.8120125,11.4279523 23.9526131,11.7399783 24.1333853,11.9934995 C24.3141576,12.2470206 24.5150156,12.4420368 24.776131,12.5590466 C25.0372465,12.6760563 25.3385335,12.7345612 25.6599064,12.7345612 C26.1821373,12.7345612 26.624025,12.6370531 26.9855694,12.4225352 C27.3471139,12.2080173 27.6885725,11.915493 28.0099454,11.5254605 Z M39.800312,10.2773564 C39.6597114,9.98483207 39.4789392,9.75081257 39.2379095,9.55579632 C38.9968799,9.34127844 38.7357644,9.18526544 38.4344774,9.04875406 C38.1331903,8.91224269 37.8118175,8.77573131 37.4904446,8.67822319 C37.1690718,8.58071506 36.8677847,8.48320693 36.5664977,8.40520043 C36.2652106,8.32719393 36.0040952,8.21018418 35.7630655,8.09317443 C35.5220359,7.97616468 35.3412637,7.87865655 35.200663,7.72264355 C35.0600624,7.56663055 34.9797192,7.39111593 34.9797192,7.17659805 C34.9797192,6.84507042 35.1203198,6.57204767 35.4015211,6.37703142 C35.6827223,6.18201517 36.0643526,6.08450704 36.5464119,6.08450704 C37.0083853,6.08450704 37.4904446,6.14301192 37.7515601,6.22101842 C37.8319033,6.9815818 37.8720749,7.2156013 37.8921607,7.31310943 C37.9524181,7.54712893 38.0930187,7.6836403 38.3541342,7.6836403 L39.499025,7.6836403 L39.499025,4.85590466 L39.5191108,4.85590466 C38.0729329,4.42686891 37.5105304,4.32936078 36.5062402,4.32936078 C35.8634945,4.32936078 35.3211778,4.42686891 34.8391186,4.58288191 C34.3570593,4.73889491 33.9352574,4.97291441 33.6138846,5.24593716 C33.2925117,5.51895991 33.0313963,5.85048754 32.8707098,6.22101842 C32.7100234,6.5915493 32.6296802,6.9815818 32.6296802,7.39111593 C32.6296802,7.8396533 32.7100234,8.21018418 32.850624,8.52221018 C32.9912246,8.83423619 33.1719969,9.08775731 33.4130265,9.30227519 C33.6540562,9.51679307 33.9352574,9.69230769 34.2365445,9.82881907 C34.5378315,9.96533044 34.8391186,10.1018418 35.1604914,10.1993499 C35.4818643,10.2968581 35.8032371,10.3943662 36.1045242,10.4918743 C36.4058112,10.5698808 36.6669267,10.6673889 36.9079563,10.7843987 C37.148986,10.9014085 37.349844,11.0184182 37.4904446,11.1744312 C37.6310452,11.3304442 37.6913027,11.5059588 37.6913027,11.7399783 C37.6913027,11.8959913 37.6712168,12.0520043 37.6109594,12.2080173 C37.550702,12.3640303 37.450273,12.4615385 37.3096724,12.5785482 C37.1690718,12.695558 37.0083853,12.7735645 36.7874415,12.851571 C36.5865835,12.9100758 36.325468,12.9490791 36.024181,12.9490791 C35.5822933,12.9490791 34.9395476,12.9490791 34.3972309,12.7930661 C34.3168877,12.0130011 34.2767161,11.7399783 34.2566303,11.6424702 C34.1963729,11.4084507 34.0557722,11.2719393 33.7946568,11.2719393 L32.6296802,11.2719393 L32.6296802,14.099675 C33.3728549,14.3726977 34.6181747,14.6457205 35.9036661,14.6457205 C36.5664977,14.6457205 37.1690718,14.567714 37.6712168,14.3921993 C38.1934477,14.2361863 38.6152496,14.0021668 38.9567083,13.7096425 C39.2981669,13.4171181 39.5592824,13.0660888 39.7400546,12.6565547 C39.9208268,12.2470206 40.0212559,11.7984832 40.0212559,11.3109426 C40.0212559,10.9014085 39.9409126,10.5698808 39.800312,10.2773564 Z M45.0828783,4.30985915 C45.524766,4.30985915 45.9465679,4.36836403 46.3281981,4.44637053 C46.7098284,4.52437703 47.0713729,4.66088841 47.3927457,4.83640303 L50.3453588,4.83640303 L50.3453588,5.73347779 C50.3453588,5.88949079 50.3051872,6.00650054 50.224844,6.08450704 C50.1445008,6.16251354 50.023986,6.22101842 49.8231279,6.26002167 L48.899181,6.41603467 C48.9594384,6.5915493 48.99961,6.76706392 49.0397816,6.96208017 C49.0799532,7.15709642 49.100039,7.33261105 49.100039,7.54712893 C49.100039,8.03466956 48.99961,8.50270856 48.798752,8.89274106 C48.5978939,9.28277356 48.3166927,9.63380282 47.9551482,9.90682557 C47.5936037,10.1798483 47.1517161,10.3943662 46.6696568,10.5503792 C46.1875975,10.7063922 45.6653666,10.7843987 45.0828783,10.7843987 C44.701248,10.7843987 44.299532,10.7648971 43.9379875,10.6868906 C43.6166147,10.8819068 43.4559282,11.0769231 43.4559282,11.3109426 C43.4559282,11.5059588 43.5362715,11.6619718 43.7371295,11.75948 C43.9379875,11.8569881 44.1790172,11.915493 44.50039,11.9544962 C44.8217629,11.9934995 45.1632215,12.0325027 45.5649376,12.0325027 C45.9666537,12.0520043 46.3482839,12.0520043 46.7700858,12.0910076 C47.1918877,12.1300108 47.5936037,12.1885157 47.9953198,12.2665222 C48.3970359,12.3445287 48.7184087,12.4810401 49.0397816,12.6565547 C49.3611544,12.8320693 49.6021841,13.0465872 49.8030421,13.3586132 C50.0039002,13.6706392 50.0842434,14.0606717 50.0842434,14.5287107 C50.0842434,14.9772481 49.9637285,15.4062839 49.7427847,15.815818 C49.5218409,16.2253521 49.200468,16.595883 48.7786661,16.9274106 C48.3568643,17.2589382 47.8346334,17.5124594 47.2119735,17.7074756 C46.5893136,17.9024919 45.8863105,18 45.1029641,18 C44.3196178,18 43.6367005,17.9414951 43.0542122,17.7854821 C42.4717239,17.6294691 42.0097504,17.4344529 41.6281201,17.2004334 C41.2464899,16.9664139 40.9652886,16.6738895 40.7845164,16.3618635 C40.6037441,16.0498375 40.5033151,15.7183099 40.5033151,15.3672806 C40.5033151,14.8992416 40.6439158,14.4897075 40.9452028,14.1776815 C41.2464899,13.8656555 41.6482059,13.631636 42.1704368,13.4366197 C41.9093214,13.3001083 41.7285491,13.1245937 41.5678627,12.8905742 C41.4071763,12.6565547 41.3268331,12.3640303 41.3268331,11.9934995 C41.3268331,11.8374865 41.3469189,11.6814735 41.4071763,11.5254605 C41.4674337,11.3694475 41.5276911,11.2134345 41.6482059,11.0574215 C41.7687207,10.9014085 41.9093214,10.7453954 42.0700078,10.6088841 C42.2306942,10.4723727 42.4516381,10.3553629 42.6725819,10.2383532 C42.150351,9.96533044 41.7285491,9.59479957 41.4272621,9.14626219 C41.125975,8.69772481 40.9853744,8.15167931 40.9853744,7.54712893 C40.9853744,7.0595883 41.0858034,6.5915493 41.2866615,6.20151679 C41.4875195,5.81148429 41.7888066,5.46045504 42.150351,5.18743229 C42.5118955,4.91440953 42.9336973,4.69989166 43.4358424,4.54387866 C43.9379875,4.38786566 44.50039,4.30985915 45.0828783,4.30985915 Z M47.7944618,14.9382449 C47.7944618,14.7432286 47.7342044,14.5872156 47.6136895,14.4702059 C47.4931747,14.3531961 47.3324883,14.255688 47.1316303,14.1776815 C46.9307722,14.099675 46.6696568,14.0606717 46.3884555,14.0216685 C46.1072543,13.9826652 45.826053,13.9631636 45.5046802,13.943662 C45.1833073,13.9241603 44.8619345,13.9241603 44.5405616,13.9046587 C44.2191888,13.8851571 43.8978159,13.8656555 43.5965289,13.8266522 C43.3153276,13.9826652 43.074298,14.1581798 42.9136115,14.3531961 C42.7529251,14.5482124 42.6524961,14.7822319 42.6524961,15.0552546 C42.6524961,15.2307692 42.7127535,15.3867822 42.7930967,15.5427952 C42.8734399,15.6988082 43.0140406,15.8353196 43.2148986,15.9523294 C43.4157566,16.0693391 43.6768721,16.1473456 43.9982449,16.2058505 C44.3196178,16.2643554 44.6811622,16.3033586 45.1431357,16.3033586 C45.6051092,16.3033586 46.0068253,16.2643554 46.3482839,16.1863489 C46.6897426,16.1083424 46.950858,16.0303359 47.1718019,15.9133261 C47.3927457,15.7963164 47.5534321,15.6403034 47.6538612,15.4842904 C47.7542902,15.3282774 47.7944618,15.1332611 47.7944618,14.9382449 Z M45.0828783,9.24377031 C45.3841654,9.24377031 45.6653666,9.20476706 45.8863105,9.12676056 C46.1072543,9.04875406 46.3081123,8.93174431 46.4487129,8.79523294 C46.6093994,8.65872156 46.7098284,8.46370531 46.7901716,8.26868906 C46.8705148,8.07367281 46.9106864,7.8396533 46.9106864,7.6056338 C46.9106864,7.11809317 46.75,6.72806067 46.4487129,6.43553629 C46.1474259,6.14301192 45.6854524,6.00650054 45.0828783,6.00650054 C44.4803042,6.00650054 43.9982449,6.14301192 43.6969579,6.43553629 C43.3956708,6.72806067 43.2550702,7.11809317 43.2550702,7.6056338 C43.2550702,7.8396533 43.275156,8.07367281 43.3554992,8.26868906 C43.4358424,8.46370531 43.5362715,8.61971831 43.6969579,8.77573131 C43.8576443,8.93174431 44.0384165,9.04875406 44.2794462,9.12676056 C44.5204758,9.20476706 44.7815913,9.24377031 45.0828783,9.24377031 Z M62.5575273,12.7345612 C62.5374415,12.7345612 62.4972699,12.7150596 62.4370125,12.7150596 C62.3767551,12.7150596 62.2763261,12.6760563 62.1357254,12.6565547 C61.9951248,12.6370531 61.774181,12.5980498 61.5331513,12.5590466 L61.5331513,8.13217768 C61.5331513,7.56663055 61.4728939,7.0595883 61.3122075,6.5915493 C61.1515211,6.12351029 60.9305772,5.71397616 60.649376,5.38244854 C60.3480889,5.05092091 60.0066303,4.77789816 59.5647426,4.60238353 C59.1228549,4.40736728 58.6207098,4.32936078 58.0583073,4.32936078 C57.7168487,4.32936078 57.3954758,4.36836403 57.0941888,4.42686891 C56.7929017,4.48537378 56.5317863,4.60238353 56.2706708,4.71939328 C56.0095554,4.83640303 55.7484399,4.97291441 55.5274961,5.14842904 C55.2864665,5.32394366 55.0856084,5.49945829 54.8847504,5.71397616 L54.7039782,4.93391116 C54.6035491,4.64138678 54.4026911,4.48537378 54.0813183,4.48537378 L51.0483619,4.48537378 L51.0483619,5.63596966 C51.0483619,5.96749729 51.2090484,6.16251354 51.550507,6.24052004 C51.5705928,6.24052004 51.6107644,6.24052004 51.6710218,6.26002167 C51.7312793,6.26002167 51.8317083,6.29902492 51.9723089,6.31852654 C52.1129095,6.33802817 52.3137676,6.37703142 52.5547972,6.41603467 L52.5547972,12.5590466 C52.3137676,12.5980498 52.1129095,12.6370531 51.9723089,12.6565547 C51.8317083,12.6760563 51.7312793,12.695558 51.6710218,12.7150596 C51.6107644,12.7150596 51.5705928,12.7345612 51.550507,12.7345612 C51.2090484,12.8125677 51.0483619,13.007584 51.0483619,13.3391116 L51.0483619,14.4897075 L56.5518721,14.4897075 L56.5518721,13.3391116 C56.5518721,13.007584 56.3911856,12.8125677 56.049727,12.7345612 C56.0296412,12.7345612 55.9894696,12.7345612 55.9292122,12.7150596 C55.8689548,12.695558 55.7685257,12.6760563 55.6279251,12.6565547 C55.4873245,12.6370531 55.2864665,12.5980498 55.0454368,12.5590466 L55.0454368,7.25460455 C55.3868955,6.92307692 55.7283541,6.68905742 56.1099844,6.49404117 C56.4916147,6.29902492 56.8933307,6.20151679 57.3151326,6.20151679 C57.8976209,6.20151679 58.3395086,6.37703142 58.6207098,6.70855905 C58.9019111,7.04008667 59.0625975,7.5276273 59.0625975,8.13217768 L59.0625975,14.4897075 L63.0596724,14.4897075 L63.0596724,13.3391116 C63.0596724,13.007584 62.898986,12.8125677 62.5575273,12.7345612 Z M63.9434477,13.163597 C63.9434477,13.3781148 63.9836193,13.5731311 64.0639626,13.7486457 C64.1443058,13.9241603 64.2447348,14.0606717 64.3853354,14.1971831 C64.525936,14.3336945 64.7067083,14.4312026 64.8874805,14.5092091 C65.0682527,14.5872156 65.2691108,14.6262189 65.4900546,14.6262189 C65.6909126,14.6262189 65.8917707,14.5872156 66.0725429,14.5092091 C66.2533151,14.4312026 66.4140016,14.3336945 66.5546022,14.1971831 C66.6952028,14.0606717 66.7956318,13.9241603 66.875975,13.7486457 C66.9563183,13.5731311 66.9964899,13.3781148 66.9964899,13.163597 C66.9964899,12.9685807 66.9563183,12.7540628 66.875975,12.5785482 C66.7956318,12.4030336 66.6952028,12.2470206 66.5546022,12.1105092 C66.4140016,11.9739978 66.2533151,11.8764897 66.0725429,11.7984832 C65.8917707,11.7204767 65.6708268,11.6814735 65.4699688,11.6814735 C65.249025,11.6814735 65.0481669,11.7204767 64.8673947,11.7984832 C64.6866225,11.8764897 64.525936,11.9739978 64.3853354,12.1105092 C64.2447348,12.2470206 64.1443058,12.4030336 64.0639626,12.5785482 C63.9836193,12.7540628 63.9434477,12.9685807 63.9434477,13.163597 Z M84.8929407,12.7345612 C84.8728549,12.7345612 84.8326833,12.7150596 84.7724259,12.7150596 C84.7121685,12.7150596 84.6117395,12.6760563 84.4711388,12.6565547 C84.3305382,12.6370531 84.1296802,12.5980498 83.8886505,12.5590466 L83.8886505,8.13217768 C83.8886505,7.5276273 83.8083073,6.9815818 83.6476209,6.5135428 C83.4869345,6.04550379 83.2659906,5.65547129 82.9647036,5.32394366 C82.6634165,4.99241603 82.2817863,4.75839653 81.8398986,4.58288191 C81.3980109,4.40736728 80.8958658,4.32936078 80.3334633,4.32936078 C80.0120905,4.32936078 79.6706318,4.36836403 79.349259,4.44637053 C79.0278861,4.52437703 78.7065133,4.62188516 78.425312,4.77789816 C78.1441108,4.93391116 77.8829953,5.10942579 77.6419657,5.34344529 C77.400936,5.57746479 77.200078,5.86998917 77.0393916,6.20151679 C76.8385335,5.63596966 76.5171607,5.18743229 76.0953588,4.83640303 C75.6735569,4.48537378 75.1312402,4.32936078 74.4884945,4.32936078 C74.1872075,4.32936078 73.9060062,4.34886241 73.6448908,4.42686891 C73.3837754,4.50487541 73.1427457,4.60238353 72.9218019,4.71939328 C72.700858,4.83640303 72.4799142,4.97291441 72.2790562,5.12892741 C72.0781981,5.28494041 71.8974259,5.47995666 71.7166537,5.67497291 L71.5559672,4.93391116 C71.4555382,4.64138678 71.2546802,4.48537378 70.9333073,4.48537378 L67.8802652,4.48537378 L67.8802652,5.63596966 C67.8802652,5.96749729 68.0610374,6.16251354 68.4024961,6.24052004 C68.4225819,6.24052004 68.4627535,6.26002167 68.5230109,6.26002167 C68.5832683,6.26002167 68.6836973,6.29902492 68.824298,6.31852654 C68.9648986,6.33802817 69.1657566,6.37703142 69.4067863,6.41603467 L69.4067863,12.5590466 C69.1657566,12.5980498 68.9648986,12.6370531 68.824298,12.6565547 C68.6836973,12.6760563 68.5832683,12.7150596 68.5230109,12.7150596 C68.4627535,12.7150596 68.4225819,12.7345612 68.4024961,12.7345612 C68.0610374,12.8125677 67.900351,13.007584 67.900351,13.3391116 L67.900351,14.4897075 L73.4038612,14.4897075 L73.4038612,13.3391116 C73.4038612,13.007584 73.2431747,12.8125677 72.9017161,12.7345612 C72.8816303,12.7345612 72.8414587,12.7345612 72.7812012,12.7150596 C72.7209438,12.695558 72.6205148,12.6760563 72.4799142,12.6565547 C72.3393136,12.6370531 72.1384555,12.5980498 71.8974259,12.5590466 L71.8974259,7.17659805 C72.1585413,6.88407367 72.4397426,6.63055255 72.7611154,6.45503792 C73.0824883,6.27952329 73.4038612,6.20151679 73.7654056,6.20151679 C74.3077223,6.20151679 74.7094384,6.35752979 74.9906396,6.6695558 C75.2718409,6.9815818 75.4124415,7.46912243 75.4124415,8.13217768 L75.4124415,14.4897075 L79.4095164,14.4897075 L79.4095164,13.3391116 C79.4095164,13.007584 79.24883,12.8125677 78.9073713,12.7345612 C78.8872855,12.7345612 78.8471139,12.7345612 78.7868565,12.7150596 C78.7265991,12.695558 78.62617,12.6760563 78.4855694,12.6565547 C78.3449688,12.6370531 78.1641966,12.5980498 77.9030811,12.5590466 L77.9030811,8.13217768 C77.9030811,7.82015168 77.9432527,7.5276273 78.0436817,7.2936078 C78.1441108,7.0595883 78.2646256,6.84507042 78.425312,6.68905742 C78.5859984,6.53304442 78.7667707,6.41603467 78.9877145,6.33802817 C79.2086583,6.26002167 79.449688,6.20151679 79.7108034,6.20151679 C80.2732059,6.20151679 80.6950078,6.35752979 80.976209,6.68905742 C81.2574103,7.00108342 81.3980109,7.48862405 81.3980109,8.13217768 L81.3980109,14.4897075 L85.3950858,14.4897075 L85.3950858,13.3391116 C85.3950858,13.007584 85.2343994,12.8125677 84.8929407,12.7345612 Z M91.0391966,4.32936078 C91.6819423,4.32936078 92.2845164,4.42686891 92.8268331,4.62188516 C93.3691498,4.81690141 93.8311232,5.12892741 94.2328393,5.51895991 C94.6345554,5.90899242 94.9358424,6.37703142 95.1567863,6.94257855 C95.3777301,7.50812568 95.4982449,8.13217768 95.4982449,8.85373781 C95.4982449,9.02925244 95.4781591,9.20476706 95.4580733,9.32177681 C95.4379875,9.43878657 95.4179017,9.53629469 95.3777301,9.59479957 C95.3375585,9.67280607 95.2773011,9.71180932 95.1969579,9.75081257 C95.1166147,9.78981582 95.0362715,9.78981582 94.9157566,9.78981582 L88.5485569,9.78981582 C88.6289002,10.823402 88.9101014,11.5644637 89.4122465,12.0520043 C89.9143916,12.539545 90.5571373,12.7735645 91.3806552,12.7735645 C91.7823713,12.7735645 92.12383,12.7345612 92.4050312,12.6370531 C92.7063183,12.539545 92.9473479,12.4420368 93.1682917,12.3250271 C93.3892356,12.2080173 93.5900936,12.1300108 93.75078,12.0325027 C93.9114665,11.9349946 94.0520671,11.8959913 94.2127535,11.8959913 C94.3131825,11.8959913 94.4136115,11.915493 94.4939548,11.9544962 C94.574298,11.9934995 94.6144696,12.0325027 94.674727,12.1105092 L95.3978159,12.9880823 C95.1166147,13.3001083 94.8153276,13.5731311 94.473869,13.787649 C94.1324103,14.0021668 93.7708658,14.1776815 93.4093214,14.2946912 C93.0276911,14.411701 92.6460608,14.4897075 92.2644306,14.5482124 C91.8828003,14.6067172 91.50117,14.6262189 91.1396256,14.6262189 C90.4165367,14.6262189 89.773791,14.5287107 89.151131,14.2946912 C88.5284711,14.0606717 88.0062402,13.7096425 87.5442668,13.2611051 C87.0822933,12.8125677 86.7207488,12.2470206 86.4596334,11.5839653 C86.1985179,10.9209101 86.0780031,10.1408451 86.0780031,9.26327194 C86.0780031,8.58071506 86.1985179,7.95666306 86.4194618,7.35211268 C86.6404056,6.7475623 86.9818643,6.22101842 87.4036661,5.77248104 C87.825468,5.32394366 88.3476989,4.97291441 88.950273,4.71939328 C89.5528471,4.46587216 90.275936,4.32936078 91.0391966,4.32936078 Z M91.0793682,6.04550379 C90.3562793,6.04550379 89.7938768,6.26002167 89.3921607,6.65005417 C88.9904446,7.04008667 88.7293292,7.6056338 88.6088144,8.32719393 L93.2687207,8.32719393 C93.2687207,8.01516793 93.2084633,7.72264355 93.1281201,7.4496208 C93.0477769,7.17659805 92.9071763,6.94257855 92.7264041,6.72806067 C92.5456318,6.5135428 92.324688,6.35752979 92.0434867,6.24052004 C91.7622855,6.12351029 91.4409126,6.04550379 91.0793682,6.04550379 Z M107.348869,13.3001083 L107.348869,14.4507042 L104.416342,14.4507042 C104.255655,14.4507042 104.13514,14.411701 104.014626,14.3336945 C103.894111,14.255688 103.833853,14.1581798 103.793682,14.0021668 L103.592824,13.0855905 C103.171022,13.5536295 102.709048,13.9046587 102.166732,14.1971831 C101.624415,14.4897075 100.981669,14.6262189 100.25858,14.6262189 C99.6961778,14.6262189 99.1940328,14.5287107 98.7320593,14.2946912 C98.2700858,14.0606717 97.8683697,13.7291441 97.5269111,13.3001083 C97.1854524,12.8710726 96.924337,12.3250271 96.7435647,11.7009751 C96.5627925,11.0574215 96.4623635,10.3358613 96.4623635,9.51679307 C96.4623635,8.77573131 96.5627925,8.09317443 96.7636505,7.4496208 C96.9645086,6.80606717 97.2858814,6.26002167 97.6675117,5.79198267 C98.049142,5.32394366 98.5111154,4.97291441 99.0534321,4.69989166 C99.5957488,4.42686891 100.198323,4.29035753 100.88124,4.29035753 C101.463729,4.29035753 101.965874,4.38786566 102.36759,4.56338028 C102.769306,4.73889491 103.13085,4.95341278 103.452223,5.26543879 L103.452223,1.93066089 C103.191108,1.89165764 103.010335,1.85265439 102.869735,1.83315276 C102.729134,1.81365114 102.628705,1.77464789 102.568448,1.77464789 C102.50819,1.77464789 102.468019,1.75514626 102.447933,1.75514626 C102.106474,1.67713976 101.945788,1.48212351 101.945788,1.15059588 L101.945788,0 L105.942863,0 L105.942863,12.539545 C106.163807,12.5785482 106.344579,12.5980498 106.465094,12.6175515 C106.585608,12.6370531 106.686037,12.6760563 106.726209,12.6760563 C106.766381,12.6760563 106.806552,12.695558 106.846724,12.695558 C107.188183,12.7735645 107.348869,12.9685807 107.348869,13.3001083 Z M103.472309,11.5254605 L103.472309,7.04008667 C103.191108,6.70855905 102.869735,6.47453954 102.548362,6.33802817 C102.206903,6.20151679 101.845359,6.12351029 101.463729,6.12351029 C101.082098,6.12351029 100.760725,6.20151679 100.459438,6.33802817 C100.158151,6.47453954 99.8970359,6.68905742 99.676092,6.96208017 C99.475234,7.23510293 99.3145476,7.58613218 99.1940328,8.01516793 C99.0735179,8.44420368 99.0333463,8.93174431 99.0333463,9.51679307 C99.0333463,10.1018418 99.0735179,10.6088841 99.173947,11.0184182 C99.274376,11.4279523 99.4149766,11.7399783 99.5957488,11.9934995 C99.7765211,12.2470206 99.9773791,12.4420368 100.238495,12.5590466 C100.49961,12.6760563 100.800897,12.7345612 101.12227,12.7345612 C101.644501,12.7345612 102.086388,12.6370531 102.447933,12.4225352 C102.809477,12.2080173 103.150936,11.915493 103.472309,11.5254605 Z M113.053237,12.7345612 C113.033151,12.7345612 112.99298,12.7150596 112.932722,12.7150596 C112.872465,12.7150596 112.772036,12.6760563 112.631435,12.6565547 C112.490835,12.6370531 112.269891,12.5980498 112.028861,12.5590466 L112.028861,4.48537378 L108.031786,4.48537378 L108.031786,5.63596966 C108.031786,5.96749729 108.192473,6.16251354 108.533931,6.24052004 C108.554017,6.24052004 108.594189,6.26002167 108.654446,6.26002167 C108.714704,6.26002167 108.815133,6.29902492 108.955733,6.31852654 C109.096334,6.33802817 109.317278,6.37703142 109.558307,6.41603467 L109.558307,12.5590466 C109.317278,12.5980498 109.096334,12.6370531 108.955733,12.6565547 C108.815133,12.6760563 108.714704,12.695558 108.654446,12.7150596 C108.594189,12.7150596 108.554017,12.7345612 108.533931,12.7345612 C108.192473,12.8125677 108.031786,13.007584 108.031786,13.3391116 L108.031786,14.4897075 L113.555382,14.4897075 L113.555382,13.3391116 C113.555382,13.007584 113.394696,12.8125677 113.053237,12.7345612 Z M112.410491,1.56013001 C112.410491,1.34561213 112.350234,1.15059588 112.269891,0.955579632 C112.189548,0.76056338 112.069033,0.604550379 111.928432,0.468039003 C111.787832,0.331527627 111.627145,0.234019502 111.426287,0.156013001 C111.225429,0.0780065005 111.024571,0.0195016251 110.803627,0.0195016251 C110.582683,0.0195016251 110.381825,0.0780065005 110.180967,0.156013001 C109.980109,0.234019502 109.839509,0.331527627 109.698908,0.468039003 C109.558307,0.604550379 109.437793,0.76056338 109.357449,0.955579632 C109.277106,1.15059588 109.236934,1.34561213 109.236934,1.56013001 C109.236934,1.77464789 109.277106,1.96966414 109.357449,2.14517876 C109.437793,2.32069339 109.558307,2.49620802 109.698908,2.63271939 C109.839509,2.76923077 109.980109,2.88624052 110.180967,2.96424702 C110.381825,3.04225352 110.582683,3.08125677 110.803627,3.08125677 C111.024571,3.08125677 111.225429,3.04225352 111.426287,2.96424702 C111.627145,2.88624052 111.787832,2.76923077 111.928432,2.63271939 C112.069033,2.49620802 112.189548,2.32069339 112.269891,2.14517876 C112.350234,1.96966414 112.410491,1.77464789 112.410491,1.56013001 Z M123.497855,12.7150596 C123.839314,12.7930661 124,12.9880823 124,13.31961 L124,14.4702059 L121.629875,14.4702059 C121.388846,14.4702059 121.208073,14.4507042 121.067473,14.3726977 C120.926872,14.3141928 120.826443,14.1581798 120.766186,13.943662 L120.545242,13.2416035 C120.284126,13.475623 120.043097,13.6706392 119.781981,13.8461538 C119.540952,14.0216685 119.25975,14.1581798 118.998635,14.2751896 C118.73752,14.3921993 118.456318,14.4702059 118.155031,14.5287107 C117.853744,14.5872156 117.512285,14.6262189 117.150741,14.6262189 C116.708853,14.6262189 116.307137,14.567714 115.945593,14.4507042 C115.584048,14.3336945 115.262676,14.1776815 115.00156,13.943662 C114.740445,13.7096425 114.519501,13.4171181 114.3789,13.0855905 C114.2383,12.7540628 114.157956,12.3640303 114.157956,11.915493 C114.157956,11.5449621 114.258385,11.1549296 114.459243,10.7843987 C114.660101,10.4138678 115.00156,10.0823402 115.483619,9.78981582 C115.965679,9.49729144 116.588339,9.24377031 117.371685,9.04875406 C118.155031,8.85373781 119.159321,8.75622969 120.324298,8.75622969 L120.324298,8.17118093 C120.324298,7.48862405 120.163612,7.00108342 119.88241,6.6695558 C119.601209,6.33802817 119.179407,6.18201517 118.617005,6.18201517 C118.215289,6.18201517 117.87383,6.22101842 117.612715,6.31852654 C117.351599,6.41603467 117.110569,6.5135428 116.909711,6.63055255 C116.708853,6.7475623 116.528081,6.8255688 116.367395,6.92307692 C116.206708,7.02058505 116.025936,7.0595883 115.825078,7.0595883 C115.664392,7.0595883 115.503705,7.02058505 115.38319,6.94257855 C115.262676,6.86457205 115.182332,6.7475623 115.101989,6.63055255 L114.640016,5.86998917 C115.825078,4.81690141 117.25117,4.2708559 118.918292,4.2708559 C119.520866,4.2708559 120.063183,4.36836403 120.545242,4.56338028 C121.007215,4.75839653 121.408931,5.03141928 121.730304,5.36294691 C122.051677,5.71397616 122.332878,6.12351029 122.493565,6.5915493 C122.654251,7.0595883 122.734594,7.58613218 122.734594,8.15167931 L122.734594,12.5785482 C122.955538,12.6175515 123.156396,12.6565547 123.276911,12.6760563 C123.397426,12.695558 123.477769,12.7150596 123.497855,12.7150596 Z M120.324298,11.8959913 L120.324298,10.2188516 C119.601209,10.2188516 118.998635,10.2578548 118.516576,10.3553629 C118.034516,10.4528711 117.6328,10.5698808 117.331513,10.7063922 C117.030226,10.8429036 116.829368,10.9989166 116.708853,11.1744312 C116.588339,11.3499458 116.528081,11.5644637 116.528081,11.7789816 C116.528081,12.2080173 116.648596,12.5200433 116.909711,12.695558 C117.170827,12.8710726 117.4922,12.9685807 117.914002,12.9685807 C118.175117,12.9685807 118.396061,12.9490791 118.617005,12.9100758 C118.837949,12.8710726 119.058892,12.7930661 119.239665,12.695558 C119.420437,12.5980498 119.601209,12.5005417 119.781981,12.3640303 C119.962754,12.227519 120.143526,12.071506 120.324298,11.8959913 Z" id="dsgn.media"></path>
                    <path d="M13.993,15 L2.007,15 C1.475,15.002 0.965,14.792 0.587,14.417 C0.213,14.04 0,13.532 0,13 L0,4 C0,2.9 0.89,2.005 1.99,2 L3.586,2 L5.122,0.463 C5.43,0.173 5.835,0.01 6.258,0 L9.742,0 C10.165,0.01 10.57,0.174 10.878,0.463 L12.414,2 L14.009,2 C15.109,2.005 15.999,2.9 15.999,4 L15.999,13.01 C15.993,14.113 15.095,15.004 13.992,15 L13.993,15 Z M8,4 C10.21,4 12,5.79 12,8 C12,10.21 10.21,12 8,12 C5.79,12 4,10.21 4,8 C4,5.79 5.79,4 8,4 Z M8,10 C9.105,10 10,9.105 10,8 C10,6.895 9.105,6 8,6 C6.895,6 6,6.895 6,8 C6,9.105 6.895,10 8,10 Z" id="Shape"></path>
                </g>
            </g>
        </g>
    </g>
</svg>