<?xml version="1.0" encoding="UTF-8"?>
<svg width="40px" height="40px" viewBox="0 0 40 40" version="1.1" xmlns="http://www.w3.org/2000/svg" xmlns:xlink="http://www.w3.org/1999/xlink">
    <!-- Generator: sketchtool 46.2 (44496) - http://www.bohemiancoding.com/sketch -->
    <title>CF43A0BE-CE78-4AB1-BA40-AB6BC100D991</title>
    <desc>Created with sketchtool.</desc>
    <defs></defs>
    <g id="V2" stroke="none" stroke-width="1" fill="none" fill-rule="evenodd" fill-opacity="0.3">
        <g id="Desktop-Comments" transform="translate(-310.000000, -1079.000000)" fill-rule="nonzero" fill="#000000">
            <g id="Popup" transform="translate(280.000000, 692.000000)">
                <g id="Group-3" transform="translate(30.000000, 387.000000)">
                    <g id="Group-2">
                        <path d="M0,4.44444444 L0,35.5555556 C0,38 1.97777778,40 4.44444444,40 L35.5555556,40 C38,40 40,38 40,35.5555556 L40,4.44444444 C40,2 38,0 35.5555556,0 L4.44444444,0 C1.97777778,0 0,2 0,4.44444444 Z M26.6666667,13.3333333 C26.6666667,17.0222222 23.6888889,20 20,20 C16.3111111,20 13.3333333,17.0222222 13.3333333,13.3333333 C13.3333333,9.64444444 16.3111111,6.66666667 20,6.66666667 C23.6888889,6.66666667 26.6666667,9.64444444 26.6666667,13.3333333 Z M6.66666667,31.1111111 C6.66666667,26.6666667 15.5555556,24.2222222 20,24.2222222 C24.4444444,24.2222222 33.3333333,26.6666667 33.3333333,31.1111111 L33.3333333,33.3333333 L6.66666667,33.3333333 L6.66666667,31.1111111 Z" id="Shape"></path>
                    </g>
                </g>
            </g>
        </g>
    </g>
</svg>